# 3ds Max Wavefront OBJ Exporter v0.97b - (c)2007 guruware
# File Created: 19.09.2019 18:47:30

mtllib container_2x6.mtl

#
# object container_2x6
#

v  -0.8200 2.0000 2.8200
v  0.8200 2.0000 2.8200
v  0.8200 2.0000 -2.8200
v  -0.8200 2.0000 -2.8200
v  -1.0000 1.8200 2.8200
v  -0.8200 1.8200 3.0000
v  0.8200 1.8200 3.0000
v  1.0000 1.8200 2.8200
v  1.0000 1.8200 -2.8200
v  0.8200 1.8200 -3.0000
v  -0.8200 1.8200 -3.0000
v  -1.0000 1.8200 -2.8200
v  -1.0000 0.1800 2.8200
v  -0.8200 0.1800 3.0000
v  0.8200 0.1800 3.0000
v  1.0000 0.1800 2.8200
v  1.0000 0.1800 -2.8200
v  0.8200 0.1800 -3.0000
v  -0.8200 0.1800 -3.0000
v  -1.0000 0.1800 -2.8200
v  -0.8200 0.0000 2.8200
v  0.8200 0.0000 2.8200
v  0.8200 0.0000 -2.8200
v  -0.8200 0.0000 -2.8200
# 24 vertices

vn -0.3416 0.8756 0.3416
vn 0.3416 0.8756 0.3416
vn 0.3416 0.8756 -0.3416
vn -0.3416 0.8756 -0.3416
vn -0.8756 0.3416 0.3416
vn -0.3416 0.3416 0.8756
vn 0.3416 0.3416 0.8756
vn 0.8756 0.3416 0.3416
vn 0.8756 0.3416 -0.3416
vn 0.3416 0.3416 -0.8756
vn -0.3416 0.3416 -0.8756
vn -0.8756 0.3416 -0.3416
vn -0.8756 -0.3416 0.3416
vn -0.3416 -0.3416 0.8756
vn 0.3416 -0.3416 0.8756
vn 0.8756 -0.3416 0.3416
vn 0.8756 -0.3416 -0.3416
vn 0.3416 -0.3416 -0.8756
vn -0.3416 -0.3416 -0.8756
vn -0.8756 -0.3416 -0.3416
vn -0.4605 -0.7588 0.4606
vn 0.4605 -0.7588 0.4606
vn 0.4605 -0.7588 -0.4606
vn -0.4605 -0.7588 -0.4606
# 24 vertex normals

vt 0.7668 0.5266 0.0000
vt 0.7668 0.7494 0.0000
vt 0.0005 0.7494 0.0000
vt 0.0005 0.5266 0.0000
vt 0.8414 0.0305 0.0000
vt 0.8241 0.0005 0.0000
vt 0.8587 0.0005 0.0000
vt 0.2592 0.7767 0.0000
vt 0.2837 0.7767 0.0000
vt 0.2837 0.9995 0.0000
vt 0.2592 0.9995 0.0000
vt 0.5352 0.8584 0.0000
vt 0.5179 0.8284 0.0000
vt 0.5525 0.8284 0.0000
vt 0.0250 0.4979 0.0000
vt 0.0250 0.4734 0.0000
vt 0.7913 0.4734 0.0000
vt 0.7913 0.4979 0.0000
vt 0.8629 0.0005 0.0000
vt 0.8802 0.0305 0.0000
vt 0.8457 0.0305 0.0000
vt 0.0005 0.7767 0.0000
vt 0.0250 0.7767 0.0000
vt 0.0250 0.9995 0.0000
vt 0.0005 0.9995 0.0000
vt 0.8845 0.0305 0.0000
vt 0.8672 0.0005 0.0000
vt 0.9018 0.0005 0.0000
vt 0.0293 0.2478 0.0000
vt 0.0293 0.2233 0.0000
vt 0.7956 0.2233 0.0000
vt 0.7956 0.2478 0.0000
vt 0.7956 0.0005 0.0000
vt 0.8201 0.0005 0.0000
vt 0.8201 0.2233 0.0000
vt 0.5065 0.7767 0.0000
vt 0.5065 0.9995 0.0000
vt 0.0005 0.4734 0.0000
vt 0.0005 0.2506 0.0000
vt 0.0250 0.2506 0.0000
vt 0.7913 0.2506 0.0000
vt 0.8158 0.2506 0.0000
vt 0.8158 0.4734 0.0000
vt 0.2478 0.7767 0.0000
vt 0.2478 0.9995 0.0000
vt 0.0048 0.2233 0.0000
vt 0.0048 0.0005 0.0000
vt 0.0293 0.0005 0.0000
vt 0.8327 0.0264 0.0000
vt 0.8627 0.0437 0.0000
vt 0.8327 0.0610 0.0000
vt 0.7408 0.7767 0.0000
vt 0.7408 0.8011 0.0000
vt 0.5179 0.8011 0.0000
vt 0.5179 0.7767 0.0000
vt 0.8888 0.0305 0.0000
vt 0.9061 0.0005 0.0000
vt 0.9234 0.0305 0.0000
vt 0.0048 0.5252 0.0000
vt 0.0048 0.5007 0.0000
vt 0.7712 0.5007 0.0000
vt 0.7712 0.5252 0.0000
vt 0.9449 0.0005 0.0000
vt 0.9276 0.0305 0.0000
vt 0.9103 0.0005 0.0000
vt 0.5179 0.8270 0.0000
vt 0.5179 0.8025 0.0000
vt 0.7408 0.8025 0.0000
vt 0.7408 0.8270 0.0000
vt 0.9319 0.0305 0.0000
vt 0.9492 0.0005 0.0000
vt 0.9665 0.0305 0.0000
vt 0.7668 0.7508 0.0000
vt 0.7668 0.7752 0.0000
vt 0.0005 0.7752 0.0000
vt 0.0005 0.7508 0.0000
# 76 texture coords

o container_2x6
g container_2x6
usemtl Material__1500
s off
f 1/1/1 2/2/2 3/3/3 4/4/4 
f 1/5/1 5/6/5 6/7/6 
f 1/8/1 6/9/6 7/10/7 2/11/2 
f 2/12/2 7/13/7 8/14/8 
f 2/15/2 8/16/8 9/17/9 3/18/3 
f 3/19/3 9/20/9 10/21/10 
f 3/22/3 10/23/10 11/24/11 4/25/4 
f 4/26/4 11/27/11 12/28/12 
f 4/29/4 12/30/12 5/31/5 1/32/1 
f 5/31/5 13/33/13 14/34/14 6/35/6 
f 6/9/6 14/36/14 15/37/15 7/10/7 
f 7/38/7 15/39/15 16/40/16 8/16/8 
f 8/16/8 16/40/16 17/41/17 9/17/9 
f 9/17/9 17/41/17 18/42/18 10/43/10 
f 10/23/10 18/44/18 19/45/19 11/24/11 
f 11/46/11 19/47/19 20/48/20 12/30/12 
f 12/30/12 20/48/20 13/33/13 5/31/5 
f 13/49/13 21/50/21 14/51/14 
f 14/52/14 21/53/21 22/54/22 15/55/15 
f 15/56/15 22/57/22 16/58/16 
f 16/59/16 22/60/22 23/61/23 17/62/17 
f 17/63/17 23/64/23 18/65/18 
f 18/66/18 23/67/23 24/68/24 19/69/19 
f 19/70/19 24/71/24 20/72/20 
f 20/73/20 24/74/24 21/75/21 13/76/13 
# 17 polygons - 8 triangles

