# 3ds Max Wavefront OBJ Exporter v0.97b - (c)2007 guruware
# File Created: 26.09.2019 13:08:34

#
# object Box044
#

v  -0.4300 1.0000 0.4300
v  -0.4300 0.0000 0.5000
v  -0.3015 0.0000 0.2699
v  -0.3015 0.0000 -0.2556
v  -0.5000 0.0000 -0.2556
v  -0.5000 0.0000 -0.4300
v  -0.5000 0.0000 0.2699
v  -0.5000 0.9300 -0.4300
v  -0.5000 0.9300 -0.2556
v  -0.3015 1.0000 -0.2556
v  -0.2211 1.0000 -0.1752
v  -0.2211 1.0000 0.1895
v  -0.3015 1.0000 0.2699
v  -0.4300 1.0000 0.2699
v  -0.3015 0.9279 0.2699
v  -0.4274 0.9279 0.2699
v  -0.4274 0.0695 0.2699
v  -0.3015 0.0695 0.2699
v  -0.3015 0.0695 -0.2556
v  -0.4274 0.0695 -0.2556
v  -0.4274 0.9279 -0.2556
v  -0.3015 0.9279 -0.2556
v  -0.2211 0.9279 -0.1752
v  -0.2211 0.9279 0.1895
v  -0.5000 0.9300 0.4300
v  -0.4300 0.9300 0.5000
v  -0.5000 0.0000 0.4300
v  -0.4300 0.0000 -0.5000
v  -0.4300 1.0000 -0.4300
v  -0.4300 0.9300 -0.5000
v  -0.4300 1.0000 -0.2556
v  -0.5000 0.9300 0.2699
v  -0.0000 0.9300 0.5000
v  -0.0000 0.0000 0.5000
v  0.3015 0.0000 0.2699
v  0.3015 0.0000 -0.2556
v  0.5000 0.0000 -0.2556
v  0.5000 0.0000 -0.4300
v  0.4300 0.0000 -0.5000
v  -0.0000 0.0000 -0.5000
v  0.4300 0.0000 0.5000
v  0.5000 0.0000 0.4300
v  0.5000 0.0000 0.2699
v  0.4300 1.0000 0.4300
v  -0.0000 1.0000 0.4300
v  -0.0000 1.0000 -0.4300
v  0.4300 1.0000 -0.4300
v  0.4300 1.0000 -0.2556
v  0.3015 1.0000 -0.2556
v  0.2211 1.0000 -0.1752
v  0.2211 1.0000 0.1895
v  0.3015 1.0000 0.2699
v  0.4300 1.0000 0.2699
v  0.5000 0.9300 0.4300
v  0.5000 0.9300 0.2699
v  0.3015 0.9279 0.2699
v  0.4274 0.9279 0.2699
v  0.4274 0.0695 0.2699
v  0.3015 0.0695 0.2699
v  0.3015 0.0695 -0.2556
v  0.4274 0.0695 -0.2556
v  0.4274 0.9279 -0.2556
v  0.3015 0.9279 -0.2556
v  0.5000 0.9300 -0.2556
v  0.5000 0.9300 -0.4300
v  0.4300 0.9300 -0.5000
v  -0.0000 0.9300 -0.5000
v  0.2211 0.9279 -0.1752
v  0.2211 0.9279 0.1895
v  0.4300 0.9300 0.5000
# 70 vertices

vn -1.0000 0.0000 -0.0000
vn -1.0000 0.0000 -0.0000
vn -1.0000 0.0000 -0.0000
vn -1.0000 0.0000 -0.0000
vn -1.0000 0.0000 -0.0000
vn -1.0000 0.0000 -0.0000
vn 0.0000 0.0000 -1.0000
vn 0.0000 0.0000 -1.0000
vn 0.0000 0.0000 -1.0000
vn 0.0000 0.0000 -1.0000
vn 0.0000 0.0000 -1.0000
vn 0.0000 0.0000 -1.0000
vn 0.0000 0.0000 -1.0000
vn 0.0000 0.0000 -1.0000
vn 0.0000 0.0000 -1.0000
vn 0.0000 0.0000 -1.0000
vn 0.0000 0.0000 -1.0000
vn 0.0000 0.0000 -1.0000
vn 0.0000 0.0000 -1.0000
vn 0.0000 0.0000 -1.0000
vn 0.0000 0.0000 -1.0000
vn 0.0000 0.0000 -1.0000
vn 0.0000 0.0000 -1.0000
vn 0.0000 0.0000 -1.0000
vn 0.0000 0.0000 -1.0000
vn 0.0000 0.0000 -1.0000
vn 0.0000 0.0000 -1.0000
vn 0.0000 0.0000 1.0000
vn 0.0000 0.0000 1.0000
vn 0.0000 0.0000 1.0000
vn 0.0000 0.0000 1.0000
vn 0.0000 0.0000 1.0000
vn 0.0000 0.0000 1.0000
vn 0.0000 0.0000 1.0000
vn 0.0000 0.0000 1.0000
vn 0.0000 0.0000 1.0000
vn 0.0000 0.0000 1.0000
vn 0.0000 0.0000 1.0000
vn 0.0000 0.0000 1.0000
vn 0.0000 0.0000 1.0000
vn 0.0000 0.0000 1.0000
vn 0.0000 0.0000 1.0000
vn 0.0000 0.0000 1.0000
vn 0.0000 0.0000 1.0000
vn 0.0000 0.0000 1.0000
vn 0.0000 0.0000 1.0000
vn 0.0000 0.0000 1.0000
vn 0.0000 0.0000 1.0000
vn -1.0000 0.0000 -0.0000
vn -1.0000 0.0000 -0.0000
vn -1.0000 0.0000 -0.0000
vn -1.0000 0.0000 -0.0000
vn -1.0000 0.0000 -0.0000
vn -1.0000 0.0000 -0.0000
vn -0.7071 0.0000 0.7071
vn -0.7071 0.0000 0.7071
vn -0.7071 0.0000 0.7071
vn -0.7071 0.0000 0.7071
vn -0.7071 0.0000 0.7071
vn -0.7071 0.0000 0.7071
vn -1.0000 0.0000 -0.0000
vn -1.0000 0.0000 -0.0000
vn -1.0000 0.0000 -0.0000
vn -1.0000 0.0000 -0.0000
vn -1.0000 0.0000 -0.0000
vn -1.0000 0.0000 -0.0000
vn -0.7071 0.0000 -0.7071
vn -0.7071 0.0000 -0.7071
vn -0.7071 0.0000 -0.7071
vn -0.7071 0.0000 -0.7071
vn -0.7071 0.0000 -0.7071
vn -0.7071 0.0000 -0.7071
vn -1.0000 0.0000 -0.0000
vn -1.0000 0.0000 -0.0000
vn -1.0000 0.0000 -0.0000
vn -1.0000 0.0000 -0.0000
vn -1.0000 0.0000 -0.0000
vn -1.0000 0.0000 -0.0000
vn 0.0000 1.0000 -0.0000
vn 0.0000 1.0000 -0.0000
vn 0.0000 1.0000 -0.0000
vn 0.0000 1.0000 -0.0000
vn 0.0000 1.0000 -0.0000
vn 0.0000 1.0000 -0.0000
vn 0.0000 1.0000 -0.0000
vn 0.0000 1.0000 -0.0000
vn 0.0000 1.0000 -0.0000
vn 0.0000 1.0000 -0.0000
vn 0.0000 1.0000 -0.0000
vn 0.0000 1.0000 -0.0000
vn -0.5774 0.5774 0.5774
vn -0.5774 0.5774 0.5774
vn -0.5774 0.5774 0.5774
vn -0.5774 0.5774 -0.5774
vn -0.5774 0.5774 -0.5774
vn -0.5774 0.5774 -0.5774
vn -0.7071 0.0000 0.7071
vn -0.7071 0.0000 0.7071
vn -0.7071 0.0000 0.7071
vn -0.7071 0.0000 0.7071
vn -0.7071 0.0000 0.7071
vn -0.7071 0.0000 0.7071
vn -0.7071 0.7071 -0.0000
vn -0.7071 0.7071 -0.0000
vn -0.7071 0.7071 -0.0000
vn -0.7071 0.7071 -0.0000
vn -0.7071 0.7071 -0.0000
vn -0.7071 0.7071 -0.0000
vn -0.7071 0.7071 -0.0000
vn -0.7071 0.7071 -0.0000
vn -0.7071 0.7071 -0.0000
vn -0.7071 0.7071 -0.0000
vn -0.7071 0.7071 -0.0000
vn -0.7071 0.7071 -0.0000
vn -0.7071 0.0000 -0.7071
vn -0.7071 0.0000 -0.7071
vn -0.7071 0.0000 -0.7071
vn -0.7071 0.0000 -0.7071
vn -0.7071 0.0000 -0.7071
vn -0.7071 0.0000 -0.7071
vn 0.0000 0.0000 1.0000
vn 0.0000 0.0000 1.0000
vn 0.0000 0.0000 1.0000
vn 0.0000 0.0000 1.0000
vn 0.0000 0.0000 1.0000
vn 0.0000 0.0000 1.0000
vn 0.0000 0.0000 1.0000
vn 0.0000 0.0000 1.0000
vn 0.0000 0.0000 1.0000
vn 0.0000 0.0000 1.0000
vn 0.0000 0.0000 1.0000
vn 0.0000 0.0000 1.0000
vn 0.0000 1.0000 -0.0000
vn 0.0000 1.0000 -0.0000
vn 0.0000 1.0000 -0.0000
vn 0.0000 1.0000 -0.0000
vn 0.0000 1.0000 -0.0000
vn 0.0000 1.0000 -0.0000
vn 0.0000 1.0000 -0.0000
vn 0.0000 1.0000 -0.0000
vn 0.0000 1.0000 -0.0000
vn 0.0000 1.0000 -0.0000
vn 0.0000 1.0000 -0.0000
vn 0.0000 1.0000 -0.0000
vn 0.0000 1.0000 -0.0000
vn 0.0000 1.0000 -0.0000
vn 0.0000 1.0000 -0.0000
vn 0.0000 1.0000 -0.0000
vn 0.0000 1.0000 -0.0000
vn 0.0000 1.0000 -0.0000
vn 0.0000 1.0000 -0.0000
vn 0.0000 1.0000 -0.0000
vn 0.0000 1.0000 -0.0000
vn 0.0000 1.0000 -0.0000
vn 0.0000 1.0000 -0.0000
vn 0.0000 1.0000 -0.0000
vn 0.0000 1.0000 -0.0000
vn 0.0000 1.0000 -0.0000
vn 0.0000 1.0000 -0.0000
vn 0.0000 1.0000 -0.0000
vn 0.0000 1.0000 -0.0000
vn 0.0000 1.0000 -0.0000
vn 0.0000 1.0000 -0.0000
vn 0.0000 1.0000 -0.0000
vn 0.0000 1.0000 -0.0000
vn 0.0000 1.0000 -0.0000
vn 0.0000 1.0000 -0.0000
vn 0.0000 1.0000 -0.0000
vn 0.0000 1.0000 -0.0000
vn 0.0000 1.0000 -0.0000
vn 0.0000 1.0000 -0.0000
vn 0.0000 1.0000 -0.0000
vn 0.0000 1.0000 -0.0000
vn 0.0000 1.0000 -0.0000
vn 0.0000 1.0000 -0.0000
vn 0.0000 1.0000 -0.0000
vn 0.0000 1.0000 -0.0000
vn 0.0000 1.0000 -0.0000
vn 0.0000 1.0000 -0.0000
vn 0.0000 1.0000 -0.0000
vn 1.0000 0.0000 -0.0000
vn 1.0000 0.0000 -0.0000
vn 1.0000 0.0000 -0.0000
vn 1.0000 0.0000 -0.0000
vn 1.0000 0.0000 -0.0000
vn 1.0000 0.0000 -0.0000
vn 0.0000 0.0000 -1.0000
vn 0.0000 0.0000 -1.0000
vn 0.0000 0.0000 -1.0000
vn 0.0000 0.0000 -1.0000
vn 0.0000 0.0000 -1.0000
vn 0.0000 0.0000 -1.0000
vn 0.0000 0.0000 -1.0000
vn 0.0000 0.0000 -1.0000
vn 0.0000 0.0000 -1.0000
vn 0.0000 0.0000 -1.0000
vn 0.0000 0.0000 -1.0000
vn 0.0000 0.0000 -1.0000
vn 0.0000 0.0000 -1.0000
vn 0.0000 0.0000 -1.0000
vn 0.0000 0.0000 -1.0000
vn 0.0000 0.0000 -1.0000
vn 0.0000 0.0000 -1.0000
vn 0.0000 0.0000 -1.0000
vn 0.0000 0.0000 -1.0000
vn 0.0000 0.0000 -1.0000
vn 0.0000 0.0000 -1.0000
vn 0.0000 0.0000 1.0000
vn 0.0000 0.0000 1.0000
vn 0.0000 0.0000 1.0000
vn 0.0000 0.0000 1.0000
vn 0.0000 0.0000 1.0000
vn 0.0000 0.0000 1.0000
vn 0.0000 0.0000 1.0000
vn 0.0000 0.0000 1.0000
vn 0.0000 0.0000 1.0000
vn 0.0000 0.0000 1.0000
vn 0.0000 0.0000 1.0000
vn 0.0000 0.0000 1.0000
vn 0.0000 0.0000 1.0000
vn 0.0000 0.0000 1.0000
vn 0.0000 0.0000 1.0000
vn 0.0000 0.0000 1.0000
vn 0.0000 0.0000 1.0000
vn 0.0000 0.0000 1.0000
vn 0.0000 0.0000 1.0000
vn 0.0000 0.0000 1.0000
vn 0.0000 0.0000 1.0000
vn 1.0000 0.0000 -0.0000
vn 1.0000 0.0000 -0.0000
vn 1.0000 0.0000 -0.0000
vn 1.0000 0.0000 -0.0000
vn 1.0000 0.0000 -0.0000
vn 1.0000 0.0000 -0.0000
vn 0.0000 0.0000 -1.0000
vn 0.0000 0.0000 -1.0000
vn 0.0000 0.0000 -1.0000
vn 0.0000 0.0000 -1.0000
vn 0.0000 0.0000 -1.0000
vn 0.0000 0.0000 -1.0000
vn 0.0000 0.0000 -1.0000
vn 0.0000 0.0000 -1.0000
vn 0.0000 0.0000 -1.0000
vn 0.0000 0.0000 -1.0000
vn 0.0000 0.0000 -1.0000
vn 0.0000 0.0000 -1.0000
vn 0.7071 0.0000 0.7071
vn 0.7071 0.0000 0.7071
vn 0.7071 0.0000 0.7071
vn 0.7071 0.0000 0.7071
vn 0.7071 0.0000 0.7071
vn 0.7071 0.0000 0.7071
vn 1.0000 0.0000 -0.0000
vn 1.0000 0.0000 -0.0000
vn 1.0000 0.0000 -0.0000
vn 1.0000 0.0000 -0.0000
vn 1.0000 0.0000 -0.0000
vn 1.0000 0.0000 -0.0000
vn 0.7071 0.0000 -0.7071
vn 0.7071 0.0000 -0.7071
vn 0.7071 0.0000 -0.7071
vn 0.7071 0.0000 -0.7071
vn 0.7071 0.0000 -0.7071
vn 0.7071 0.0000 -0.7071
vn 1.0000 0.0000 -0.0000
vn 1.0000 0.0000 -0.0000
vn 1.0000 0.0000 -0.0000
vn 1.0000 0.0000 -0.0000
vn 1.0000 0.0000 -0.0000
vn 1.0000 0.0000 -0.0000
vn 0.0000 1.0000 -0.0000
vn 0.0000 1.0000 -0.0000
vn 0.0000 1.0000 -0.0000
vn 0.0000 1.0000 -0.0000
vn 0.0000 1.0000 -0.0000
vn 0.0000 1.0000 -0.0000
vn 0.0000 1.0000 -0.0000
vn 0.0000 1.0000 -0.0000
vn 0.0000 1.0000 -0.0000
vn 0.0000 1.0000 -0.0000
vn 0.0000 1.0000 -0.0000
vn 0.0000 1.0000 -0.0000
vn 0.5774 0.5774 0.5774
vn 0.5774 0.5774 0.5774
vn 0.5774 0.5774 0.5774
vn 0.5774 0.5774 -0.5774
vn 0.5774 0.5774 -0.5774
vn 0.5774 0.5774 -0.5774
vn 0.7071 0.0000 0.7071
vn 0.7071 0.0000 0.7071
vn 0.7071 0.0000 0.7071
vn 0.7071 0.0000 0.7071
vn 0.7071 0.0000 0.7071
vn 0.7071 0.0000 0.7071
vn 0.7071 0.7071 -0.0000
vn 0.7071 0.7071 -0.0000
vn 0.7071 0.7071 -0.0000
vn 0.7071 0.7071 -0.0000
vn 0.7071 0.7071 -0.0000
vn 0.7071 0.7071 -0.0000
vn 0.7071 0.7071 -0.0000
vn 0.7071 0.7071 -0.0000
vn 0.7071 0.7071 -0.0000
vn 0.7071 0.7071 -0.0000
vn 0.7071 0.7071 -0.0000
vn 0.7071 0.7071 -0.0000
vn 0.7071 0.0000 -0.7071
vn 0.7071 0.0000 -0.7071
vn 0.7071 0.0000 -0.7071
vn 0.7071 0.0000 -0.7071
vn 0.7071 0.0000 -0.7071
vn 0.7071 0.0000 -0.7071
vn 0.0000 0.7071 0.7071
vn 0.0000 0.7071 0.7071
vn 0.0000 0.7071 0.7071
vn 0.0000 0.7071 0.7071
vn 0.0000 0.7071 0.7071
vn 0.0000 0.7071 0.7071
vn 0.0000 0.7071 0.7071
vn 0.0000 0.7071 0.7071
vn 0.0000 0.7071 0.7071
vn 0.0000 0.7071 0.7071
vn 0.0000 0.7071 0.7071
vn 0.0000 0.7071 0.7071
vn 0.0000 0.7071 -0.7071
vn 0.0000 0.7071 -0.7071
vn 0.0000 0.7071 -0.7071
vn 0.0000 0.7071 -0.7071
vn 0.0000 0.7071 -0.7071
vn 0.0000 0.7071 -0.7071
vn 0.0000 0.7071 -0.7071
vn 0.0000 0.7071 -0.7071
vn 0.0000 0.7071 -0.7071
vn 0.0000 0.7071 -0.7071
vn 0.0000 0.7071 -0.7071
vn 0.0000 0.7071 -0.7071
# 336 vertex normals

vt 0.7202 0.4526 0.0000
vt 0.8878 0.4526 0.0000
vt 0.9953 0.4820 0.0000
vt 0.0373 0.8688 0.0000
vt 0.5812 0.8384 0.0000
vt 0.0373 0.8064 0.0000
vt 0.0874 0.8064 0.0000
vt 0.1187 0.7750 0.0000
vt 0.1187 0.6329 0.0000
vt 0.0874 0.6016 0.0000
vt 0.0373 0.6016 0.0000
vt 0.0005 0.0957 0.0000
vt 0.0629 0.0957 0.0000
vt 0.0629 0.4582 0.0000
vt 0.0005 0.4582 0.0000
vt 0.9995 0.0826 0.0000
vt 0.9714 0.0826 0.0000
vt 0.9714 0.0336 0.0000
vt 0.6368 0.0336 0.0000
vt 0.6368 0.0826 0.0000
vt 0.6097 0.0826 0.0000
vt 0.6097 0.0053 0.0000
vt 0.9722 0.0053 0.0000
vt 0.0826 0.6097 0.0000
vt 0.0826 0.6368 0.0000
vt 0.0336 0.6368 0.0000
vt 0.0336 0.9714 0.0000
vt 0.0826 0.9714 0.0000
vt 0.0826 0.9995 0.0000
vt 0.0325 0.9995 0.0000
vt 0.0053 0.9722 0.0000
vt 0.9273 0.4820 0.0000
vt 0.9273 0.1195 0.0000
vt 0.8878 0.4487 0.0000
vt 0.7202 0.4487 0.0000
vt 0.0053 0.6097 0.0000
vt 0.1140 0.9714 0.0000
vt 0.6430 0.0667 0.0000
vt 0.6430 0.0386 0.0000
vt 0.7852 0.0386 0.0000
vt 0.7852 0.0667 0.0000
vt 0.9995 0.0325 0.0000
vt 0.9995 0.1140 0.0000
vt 0.9714 0.1140 0.0000
vt 0.1140 0.9995 0.0000
vt 0.3432 0.1814 0.0000
vt 0.5480 0.1814 0.0000
vt 0.5480 0.5160 0.0000
vt 0.3432 0.5160 0.0000
vt 0.1528 0.8715 0.0000
vt 0.3576 0.8715 0.0000
vt 0.3576 0.9206 0.0000
vt 0.3263 0.9519 0.0000
vt 0.1841 0.9519 0.0000
vt 0.1528 0.9206 0.0000
vt 0.4431 0.5758 0.0000
vt 0.4525 0.5383 0.0000
vt 0.0373 0.5336 0.0000
vt 0.6146 0.8191 0.0000
vt 0.9953 0.1195 0.0000
vt 0.9273 0.5093 0.0000
vt 0.4802 0.5651 0.0000
vt 0.0902 0.4582 0.0000
vt 0.0902 0.0957 0.0000
vt 0.6146 0.8577 0.0000
vt 0.9953 0.5093 0.0000
vt 0.9000 0.4820 0.0000
vt 0.0005 0.4855 0.0000
vt 0.0629 0.4855 0.0000
vt 0.9000 0.1195 0.0000
vt 0.4809 0.7073 0.0000
vt 0.8878 0.8151 0.0000
vt 0.7202 0.8151 0.0000
vt 0.9000 0.8770 0.0000
vt 0.5526 0.8151 0.0000
vt 0.4385 0.0483 0.0000
vt 0.2049 0.5336 0.0000
vt 0.3725 0.5336 0.0000
vt 0.4051 0.0053 0.0000
vt 0.3725 0.6016 0.0000
vt 0.3224 0.6016 0.0000
vt 0.2911 0.6329 0.0000
vt 0.2911 0.7750 0.0000
vt 0.3224 0.8064 0.0000
vt 0.3725 0.8064 0.0000
vt 0.0053 0.0005 0.0000
vt 0.3678 0.0005 0.0000
vt 0.3678 0.0629 0.0000
vt 0.0053 0.0629 0.0000
vt 0.1004 0.1731 0.0000
vt 0.1004 0.1230 0.0000
vt 0.1277 0.0957 0.0000
vt 0.4902 0.0957 0.0000
vt 0.4902 0.1731 0.0000
vt 0.4632 0.1731 0.0000
vt 0.4632 0.1240 0.0000
vt 0.1285 0.1240 0.0000
vt 0.1285 0.1731 0.0000
vt 0.5093 0.9219 0.0000
vt 0.5093 0.9992 0.0000
vt 0.1468 0.9992 0.0000
vt 0.1195 0.9720 0.0000
vt 0.1195 0.9219 0.0000
vt 0.1476 0.9219 0.0000
vt 0.1476 0.9709 0.0000
vt 0.4822 0.9709 0.0000
vt 0.4822 0.9219 0.0000
vt 0.9000 0.5145 0.0000
vt 0.4436 0.0053 0.0000
vt 0.9680 0.5145 0.0000
vt 0.5526 0.4487 0.0000
vt 0.5526 0.0862 0.0000
vt 0.7202 0.0862 0.0000
vt 0.8878 0.0862 0.0000
vt 0.1476 0.8905 0.0000
vt 0.1195 0.8905 0.0000
vt 0.0386 0.7852 0.0000
vt 0.0386 0.6430 0.0000
vt 0.0667 0.6430 0.0000
vt 0.0667 0.7852 0.0000
vt 0.1004 0.2044 0.0000
vt 0.1285 0.2044 0.0000
vt 0.9680 0.8770 0.0000
vt 0.9953 0.5145 0.0000
vt 0.3386 0.1290 0.0000
vt 0.3386 0.4636 0.0000
vt 0.1338 0.4636 0.0000
vt 0.1338 0.1290 0.0000
vt 0.5145 0.9995 0.0000
vt 0.5145 0.9504 0.0000
vt 0.5459 0.9191 0.0000
vt 0.6880 0.9191 0.0000
vt 0.7194 0.9504 0.0000
vt 0.7194 0.9995 0.0000
vt 0.4051 0.0676 0.0000
vt 0.4051 0.0291 0.0000
vt 0.4243 0.0387 0.0000
vt 0.3678 0.0902 0.0000
vt 0.0053 0.0902 0.0000
vt 0.3725 0.8688 0.0000
vt 0.2049 0.8688 0.0000
vt 0.3950 0.0005 0.0000
vt 0.3950 0.0629 0.0000
vt 0.9953 0.8770 0.0000
vt 0.5526 0.4526 0.0000
vt 0.5179 0.6967 0.0000
vt 0.5557 0.8282 0.0000
vt 0.7514 0.8577 0.0000
vt 0.7514 0.8191 0.0000
vt 0.5186 0.8389 0.0000
vt 0.8883 0.8191 0.0000
vt 0.8883 0.8577 0.0000
vt 0.0100 0.6016 0.0000
vt 0.0100 0.5336 0.0000
# 154 texture coords

o Box044
g Box044
s 1
f 27/13/1 25/14/2 32/15/3 
f 32/15/4 7/12/5 27/13/6 
s 4
f 17/19/7 18/20/8 3/21/9 
f 17/19/10 3/21/11 7/22/12 
f 16/18/13 17/19/14 7/22/15 
f 7/22/16 32/23/17 14/42/18 
f 16/18/19 7/22/20 14/42/21 
f 15/17/22 16/18/23 14/42/24 
f 13/16/25 15/17/26 14/42/27 
f 21/27/28 22/28/29 10/29/30 
f 10/29/31 31/30/32 9/31/33 
f 21/27/34 10/29/35 9/31/36 
f 20/26/37 21/27/38 9/31/39 
f 20/26/40 9/31/41 5/36/42 
f 19/25/43 20/26/44 5/36/45 
f 4/24/46 19/25/47 5/36/48 
s 1
f 8/32/49 6/33/50 5/60/51 
f 5/60/52 9/3/53 8/32/54 
s 2
f 11/45/55 10/29/56 22/28/57 
f 22/28/58 23/37/59 11/45/60 
s 4
f 23/39/61 24/40/62 12/41/63 
f 12/41/64 11/38/65 23/39/66 
s 2
f 24/44/67 15/17/68 13/16/69 
f 13/16/70 12/43/71 24/44/72 
s 1
f 17/47/73 16/48/74 21/49/75 
f 21/49/76 20/46/77 17/47/78 
s 8
f 16/51/79 15/52/80 24/53/81 
f 24/53/82 23/54/83 22/55/84 
f 16/51/85 24/53/86 22/55/87 
f 21/50/88 16/51/89 22/55/90 
s 2
f 1/56/91 25/57/92 26/62/93 
f 8/5/94 29/59/95 30/65/96 
s 4
f 26/63/97 25/14/98 27/13/99 
f 27/13/100 2/64/101 26/63/102 
s 16
f 29/61/103 8/32/104 9/3/105 
f 9/3/106 31/66/107 29/61/108 
f 14/68/109 32/15/110 25/14/111 
f 25/14/112 1/69/113 14/68/114 
s 4
f 8/32/115 30/67/116 28/70/117 
f 28/70/118 6/33/119 8/32/120 
s 1
f 26/2/121 2/72/122 34/73/123 
f 33/1/124 26/2/125 34/73/126 
f 34/73/127 41/75/128 70/145/129 
f 33/1/130 34/73/131 70/145/132 
f 44/4/133 53/6/134 52/7/135 
f 44/4/136 52/7/137 51/8/138 
f 48/11/139 47/58/140 46/77/141 
f 49/10/142 48/11/143 46/77/144 
f 50/9/145 49/10/146 46/77/147 
f 46/77/148 29/78/149 31/80/150 
f 46/77/151 31/80/152 10/81/153 
f 46/77/154 10/81/155 11/82/156 
f 13/84/157 14/85/158 1/140/159 
f 12/83/160 13/84/161 1/140/162 
f 12/83/163 1/140/164 45/141/165 
f 11/82/166 12/83/167 45/141/168 
f 46/77/169 11/82/170 45/141/171 
f 50/9/172 46/77/173 45/141/174 
f 51/8/175 50/9/176 45/141/177 
f 44/4/178 51/8/179 45/141/180 
f 42/89/181 43/86/182 55/87/183 
f 55/87/184 54/88/185 42/89/186 
s 4
f 53/91/187 55/92/188 43/93/189 
f 35/94/190 59/95/191 58/96/192 
f 43/93/193 35/94/194 58/96/195 
f 43/93/196 58/96/197 57/97/198 
f 53/91/199 43/93/200 57/97/201 
f 53/91/202 57/97/203 56/98/204 
f 52/90/205 53/91/206 56/98/207 
f 64/101/208 48/102/209 49/103/210 
f 49/103/211 63/104/212 62/105/213 
f 64/101/214 49/103/215 62/105/216 
f 64/101/217 62/105/218 61/106/219 
f 37/100/220 64/101/221 61/106/222 
f 37/100/223 61/106/224 60/107/225 
f 36/99/226 37/100/227 60/107/228 
s 1
f 65/123/229 64/74/230 37/108/231 
f 37/108/232 38/110/233 65/123/234 
f 40/35/235 28/111/236 30/112/237 
f 40/35/238 30/112/239 67/113/240 
f 40/35/241 67/113/242 66/114/243 
f 39/34/244 40/35/245 66/114/246 
s 2
f 50/116/247 68/115/248 63/104/249 
f 63/104/250 49/103/251 50/116/252 
s 4
f 68/120/253 50/117/254 51/118/255 
f 51/118/256 69/119/257 68/120/258 
s 2
f 69/122/259 51/121/260 52/90/261 
f 52/90/262 56/98/263 69/122/264 
s 1
f 58/128/265 61/125/266 62/126/267 
f 62/126/268 57/127/269 58/128/270 
s 8
f 63/130/271 68/131/272 69/132/273 
f 69/132/274 56/133/275 57/134/276 
f 63/130/277 69/132/278 57/134/279 
f 62/129/280 63/130/281 57/134/282 
s 2
f 44/76/283 70/135/284 54/136/285 
f 65/79/286 66/109/287 47/137/288 
s 4
f 70/138/289 41/139/290 42/89/291 
f 42/89/292 54/88/293 70/138/294 
s 16
f 47/58/295 48/11/296 64/153/297 
f 64/153/298 65/154/299 47/58/300 
f 53/142/301 44/143/302 54/88/303 
f 54/88/304 55/87/305 53/142/306 
s 4
f 65/123/307 38/110/308 39/124/309 
f 39/124/310 66/144/311 65/123/312 
s 8
f 1/56/313 26/62/314 33/146/315 
f 45/71/316 1/56/317 33/146/318 
f 33/146/319 70/147/320 44/150/321 
f 45/71/322 33/146/323 44/150/324 
f 30/65/325 29/59/326 46/149/327 
f 67/148/328 30/65/329 46/149/330 
f 46/149/331 47/151/332 66/152/333 
f 67/148/334 46/149/335 66/152/336 
# 112 faces

