# 3ds Max Wavefront OBJ Exporter v0.97b - (c)2007 guruware
# File Created: 19.09.2019 18:51:04

mtllib cylinder_1x1.mtl

#
# object Cylinder027
#

v  0.3843 0.0000 -0.0000
v  0.3510 0.0000 -0.1563
v  0.3510 0.8462 -0.1563
v  0.3843 0.8462 -0.0000
v  0.2571 0.0000 -0.2856
v  0.2571 0.8462 -0.2856
v  0.1187 0.0000 -0.3654
v  0.1187 0.8462 -0.3654
v  -0.0402 0.0000 -0.3822
v  -0.0402 0.8462 -0.3822
v  -0.1921 0.0000 -0.3328
v  -0.1921 0.8462 -0.3328
v  -0.3109 0.0000 -0.2259
v  -0.3109 0.8462 -0.2259
v  -0.3759 0.0000 -0.0799
v  -0.3759 0.8462 -0.0799
v  -0.3759 0.0000 0.0799
v  -0.3759 0.8462 0.0799
v  -0.3109 0.0000 0.2259
v  -0.3109 0.8462 0.2259
v  -0.1921 0.0000 0.3328
v  -0.1921 0.8462 0.3328
v  -0.0402 0.0000 0.3822
v  -0.0402 0.8462 0.3822
v  0.1187 0.0000 0.3654
v  0.1187 0.8462 0.3654
v  0.2571 0.0000 0.2856
v  0.2571 0.8462 0.2856
v  0.3510 0.0000 0.1563
v  0.3510 0.8462 0.1563
v  0.2736 1.0106 0.1218
v  0.2995 1.0106 -0.0000
v  0.2736 1.0106 -0.1218
v  0.2004 1.0106 -0.2226
v  0.0926 1.0106 -0.2848
v  -0.0313 1.0106 -0.2979
v  -0.1498 1.0106 -0.2594
v  -0.2423 1.0106 -0.1760
v  -0.2930 1.0106 -0.0623
v  -0.2930 1.0106 0.0623
v  -0.2423 1.0106 0.1760
v  -0.1498 1.0106 0.2594
v  -0.0313 1.0106 0.2979
v  0.0926 1.0106 0.2848
v  0.2004 1.0106 0.2226
# 45 vertices

vn 1.0000 0.0000 -0.0000
vn 0.9135 0.0000 -0.4067
vn 0.8896 0.2275 -0.3961
vn 0.9738 0.2275 -0.0000
vn 0.6691 0.0000 -0.7431
vn 0.6516 0.2275 -0.7237
vn 0.3090 0.0000 -0.9510
vn 0.3009 0.2275 -0.9261
vn -0.1046 0.0000 -0.9945
vn -0.1018 0.2275 -0.9684
vn -0.5000 0.0000 -0.8660
vn -0.4869 0.2275 -0.8433
vn -0.8090 0.0000 -0.5878
vn -0.7878 0.2275 -0.5724
vn -0.9782 0.0000 -0.2079
vn -0.9525 0.2275 -0.2025
vn -0.9781 0.0000 0.2079
vn -0.9525 0.2275 0.2025
vn -0.8090 0.0000 0.5878
vn -0.7878 0.2275 0.5724
vn -0.5000 0.0000 0.8660
vn -0.4869 0.2275 0.8433
vn -0.1046 0.0000 0.9945
vn -0.1018 0.2275 0.9684
vn 0.3090 0.0000 0.9510
vn 0.3009 0.2275 0.9261
vn 0.6691 0.0000 0.7431
vn 0.6516 0.2275 0.7237
vn 0.9135 0.0000 0.4067
vn 0.8896 0.2275 0.3961
vn 0.5196 0.8225 0.2313
vn 0.5688 0.8225 -0.0000
vn 0.5196 0.8225 -0.2313
vn 0.3806 0.8225 -0.4227
vn 0.1758 0.8225 -0.5409
vn -0.0595 0.8225 -0.5656
vn -0.2844 0.8225 -0.4926
vn -0.4601 0.8225 -0.3343
vn -0.5563 0.8225 -0.1183
vn -0.5563 0.8225 0.1183
vn -0.4601 0.8225 0.3343
vn -0.2844 0.8225 0.4926
vn -0.0595 0.8225 0.5656
vn 0.1758 0.8225 0.5409
vn 0.3806 0.8225 0.4227
# 45 vertex normals

vt 0.8660 0.0059 0.0000
vt 0.9298 0.0059 0.0000
vt 0.9298 0.4947 0.0000
vt 0.8660 0.4947 0.0000
vt 0.9937 0.0059 0.0000
vt 0.9937 0.4947 0.0000
vt 0.0024 0.0059 0.0000
vt 0.0616 0.0059 0.0000
vt 0.0616 0.4947 0.0000
vt 0.0024 0.4947 0.0000
vt 0.1203 0.0059 0.0000
vt 0.1203 0.4947 0.0000
vt 0.1789 0.0059 0.0000
vt 0.1789 0.4947 0.0000
vt 0.2437 0.0059 0.0000
vt 0.2437 0.4947 0.0000
vt 0.3195 0.0059 0.0000
vt 0.3195 0.4935 0.0000
vt 0.3891 0.0059 0.0000
vt 0.3891 0.4935 0.0000
vt 0.4600 0.0059 0.0000
vt 0.4600 0.4947 0.0000
vt 0.5248 0.0059 0.0000
vt 0.5248 0.4947 0.0000
vt 0.5958 0.0059 0.0000
vt 0.5958 0.4947 0.0000
vt 0.6668 0.0059 0.0000
vt 0.6668 0.4947 0.0000
vt 0.7378 0.0059 0.0000
vt 0.7378 0.4947 0.0000
vt 0.8022 0.0059 0.0000
vt 0.8022 0.4947 0.0000
vt 0.0921 0.6282 0.0000
vt 0.1662 0.5912 0.0000
vt 0.2487 0.5887 0.0000
vt 0.3260 0.6178 0.0000
vt 0.3841 0.6768 0.0000
vt 0.4108 0.7547 0.0000
vt 0.4081 0.8370 0.0000
vt 0.3700 0.9105 0.0000
vt 0.3052 0.9621 0.0000
vt 0.2250 0.9829 0.0000
vt 0.1434 0.9693 0.0000
vt 0.0743 0.9236 0.0000
vt 0.0297 0.8538 0.0000
vt 0.0174 0.7720 0.0000
vt 0.0395 0.6921 0.0000
vt 0.2758 0.5039 0.0000
vt 0.2758 0.5536 0.0000
vt 0.2008 0.5536 0.0000
vt 0.2008 0.5039 0.0000
vt 0.3510 0.5039 0.0000
vt 0.3510 0.5536 0.0000
vt 0.4258 0.5039 0.0000
vt 0.4258 0.5536 0.0000
vt 0.4958 0.5039 0.0000
vt 0.4958 0.5536 0.0000
vt 0.5571 0.5039 0.0000
vt 0.5571 0.5536 0.0000
vt 0.6141 0.5039 0.0000
vt 0.6141 0.5536 0.0000
vt 0.6761 0.5039 0.0000
vt 0.6761 0.5536 0.0000
vt 0.7393 0.5039 0.0000
vt 0.7393 0.5536 0.0000
vt 0.8051 0.5039 0.0000
vt 0.8051 0.5536 0.0000
vt 0.8709 0.5039 0.0000
vt 0.8709 0.5536 0.0000
vt 0.9254 0.5039 0.0000
vt 0.9254 0.5536 0.0000
vt 0.9927 0.5039 0.0000
vt 0.9927 0.5536 0.0000
vt 0.0757 0.5039 0.0000
vt 0.0757 0.5536 0.0000
vt 0.0009 0.5536 0.0000
vt 0.0009 0.5039 0.0000
vt 0.1440 0.5039 0.0000
vt 0.1440 0.5536 0.0000
# 79 texture coords

o Cylinder027
g Cylinder027
usemtl Material__1455
s 1
f 1/1/1 2/2/2 3/3/3 4/4/4 
f 2/2/2 5/5/5 6/6/6 3/3/3 
f 5/7/5 7/8/7 8/9/8 6/10/6 
f 7/8/7 9/11/9 10/12/10 8/9/8 
f 9/11/9 11/13/11 12/14/12 10/12/10 
f 11/13/11 13/15/13 14/16/14 12/14/12 
f 13/15/13 15/17/15 16/18/16 14/16/14 
f 15/17/15 17/19/17 18/20/18 16/18/16 
f 17/19/17 19/21/19 20/22/20 18/20/18 
f 19/21/19 21/23/21 22/24/22 20/22/20 
f 21/23/21 23/25/23 24/26/24 22/24/22 
f 23/25/23 25/27/25 26/28/26 24/26/24 
f 25/27/25 27/29/27 28/30/28 26/28/26 
f 27/29/27 29/31/29 30/32/30 28/30/28 
f 29/31/29 1/1/1 4/4/4 30/32/30 
f 31/33/31 32/34/32 33/35/33 34/36/34 35/37/35 36/38/36 37/39/37 38/40/38 39/41/39 40/42/40 41/43/41 42/44/42 43/45/43 44/46/44 45/47/45 
s 2
f 3/48/3 33/49/33 32/50/32 4/51/4 
f 6/52/6 34/53/34 33/49/33 3/48/3 
f 8/54/8 35/55/35 34/53/34 6/52/6 
f 10/56/10 36/57/36 35/55/35 8/54/8 
f 12/58/12 37/59/37 36/57/36 10/56/10 
f 14/60/14 38/61/38 37/59/37 12/58/12 
f 16/62/16 39/63/39 38/61/38 14/60/14 
f 18/64/18 40/65/40 39/63/39 16/62/16 
f 20/66/20 41/67/41 40/65/40 18/64/18 
f 22/68/22 42/69/42 41/67/41 20/66/20 
f 24/70/24 43/71/43 42/69/42 22/68/22 
f 26/72/26 44/73/44 43/71/43 24/70/24 
f 28/74/28 45/75/45 44/76/44 26/77/26 
f 30/78/30 31/79/31 45/75/45 28/74/28 
f 4/51/4 32/50/32 31/79/31 30/78/30 
# 31 polygons

