# 3ds Max Wavefront OBJ Exporter v0.97b - (c)2007 guruware
# File Created: 19.09.2019 18:49:59

mtllib container_2x1.mtl

#
# object ChamferBox021
#

v  -0.8900 1.0000 -0.3900
v  -0.8900 1.0000 0.3900
v  0.8900 1.0000 0.3900
v  0.8900 1.0000 -0.3900
v  -0.8900 0.8900 -0.5000
v  -1.0000 0.8900 -0.3900
v  -1.0000 0.8900 0.3900
v  -0.8900 0.8900 0.5000
v  0.8900 0.8900 0.5000
v  1.0000 0.8900 0.3900
v  1.0000 0.8900 -0.3900
v  0.8900 0.8900 -0.5000
v  -0.8900 0.1100 -0.5000
v  -1.0000 0.1100 -0.3900
v  -1.0000 0.1100 0.3900
v  -0.8900 0.1100 0.5000
v  0.8900 0.1100 0.5000
v  1.0000 0.1100 0.3900
v  1.0000 0.1100 -0.3900
v  0.8900 0.1100 -0.5000
v  -0.8900 0.0000 -0.3900
v  -0.8900 0.0000 0.3900
v  0.8900 0.0000 0.3900
v  0.8900 0.0000 -0.3900
# 24 vertices

vn -0.3416 0.8756 -0.3416
vn -0.3416 0.8756 0.3416
vn 0.3416 0.8756 0.3416
vn 0.3416 0.8756 -0.3416
vn -0.3416 0.3416 -0.8756
vn -0.8756 0.3416 -0.3416
vn -0.8756 0.3416 0.3416
vn -0.3416 0.3416 0.8756
vn 0.3416 0.3416 0.8756
vn 0.8756 0.3416 0.3416
vn 0.8756 0.3416 -0.3416
vn 0.3416 0.3416 -0.8756
vn -0.3416 -0.3416 -0.8756
vn -0.8756 -0.3416 -0.3416
vn -0.8756 -0.3416 0.3416
vn -0.3416 -0.3416 0.8756
vn 0.3416 -0.3416 0.8756
vn 0.8756 -0.3416 0.3416
vn 0.8756 -0.3416 -0.3416
vn 0.3416 -0.3416 -0.8756
vn -0.4606 -0.7588 -0.4606
vn -0.4606 -0.7588 0.4606
vn 0.4606 -0.7588 0.4606
vn 0.4606 -0.7588 -0.4606
# 24 vertex normals

vt 0.3653 0.3605 0.0000
vt 0.6420 0.3605 0.0000
vt 0.6420 0.9919 0.0000
vt 0.3653 0.9919 0.0000
vt 0.6543 0.4015 0.0000
vt 0.6543 0.3463 0.0000
vt 0.7021 0.3739 0.0000
vt 0.6791 0.3552 0.0000
vt 0.6791 0.3162 0.0000
vt 0.9557 0.3162 0.0000
vt 0.9557 0.3552 0.0000
vt 0.7021 0.3795 0.0000
vt 0.7021 0.4347 0.0000
vt 0.6543 0.4071 0.0000
vt 0.0052 0.3552 0.0000
vt 0.0052 0.3162 0.0000
vt 0.6366 0.3162 0.0000
vt 0.6366 0.3552 0.0000
vt 0.6543 0.4678 0.0000
vt 0.6543 0.4127 0.0000
vt 0.7021 0.4402 0.0000
vt 0.6838 0.9948 0.0000
vt 0.6838 0.9557 0.0000
vt 0.9605 0.9557 0.0000
vt 0.9605 0.9948 0.0000
vt 0.7064 0.4205 0.0000
vt 0.7064 0.3653 0.0000
vt 0.7542 0.3929 0.0000
vt 0.3552 0.9919 0.0000
vt 0.3162 0.9919 0.0000
vt 0.3162 0.3605 0.0000
vt 0.3552 0.3605 0.0000
vt 0.6401 0.3162 0.0000
vt 0.6401 0.0395 0.0000
vt 0.6791 0.0395 0.0000
vt 0.9557 0.0395 0.0000
vt 0.9948 0.0395 0.0000
vt 0.9948 0.3162 0.0000
vt 0.0052 0.0395 0.0000
vt 0.6366 0.0395 0.0000
vt 0.6448 0.9557 0.0000
vt 0.6448 0.6791 0.0000
vt 0.6838 0.6791 0.0000
vt 0.9605 0.6791 0.0000
vt 0.9995 0.6791 0.0000
vt 0.9995 0.9557 0.0000
vt 0.0395 0.9919 0.0000
vt 0.0395 0.3605 0.0000
vt 0.6543 0.4734 0.0000
vt 0.7021 0.4458 0.0000
vt 0.7021 0.5010 0.0000
vt 0.6791 0.0005 0.0000
vt 0.9557 0.0005 0.0000
vt 0.7021 0.5066 0.0000
vt 0.6543 0.5342 0.0000
vt 0.6543 0.4790 0.0000
vt 0.0052 0.0005 0.0000
vt 0.6366 0.0005 0.0000
vt 0.6543 0.5397 0.0000
vt 0.7021 0.5121 0.0000
vt 0.7021 0.5673 0.0000
vt 0.6838 0.6401 0.0000
vt 0.9605 0.6401 0.0000
vt 0.7021 0.5729 0.0000
vt 0.6543 0.6005 0.0000
vt 0.6543 0.5453 0.0000
vt 0.0005 0.9919 0.0000
vt 0.0005 0.3605 0.0000
# 68 texture coords

o ChamferBox021
g ChamferBox021
usemtl Material__1461
s off
f 1/1/1 2/2/2 3/3/3 4/4/4 
f 1/5/1 5/6/5 6/7/6 
f 1/8/1 6/9/6 7/10/7 2/11/2 
f 2/12/2 7/13/7 8/14/8 
f 2/15/2 8/16/8 9/17/9 3/18/3 
f 3/19/3 9/20/9 10/21/10 
f 3/22/3 10/23/10 11/24/11 4/25/4 
f 4/26/4 11/27/11 12/28/12 
f 4/29/4 12/30/12 5/31/5 1/32/1 
f 5/33/5 13/34/13 14/35/14 6/9/6 
f 6/9/6 14/35/14 15/36/15 7/10/7 
f 7/10/7 15/36/15 16/37/16 8/38/8 
f 8/16/8 16/39/16 17/40/17 9/17/9 
f 9/41/9 17/42/17 18/43/18 10/23/10 
f 10/23/10 18/43/18 19/44/19 11/24/11 
f 11/24/11 19/44/19 20/45/20 12/46/12 
f 12/30/12 20/47/20 13/48/13 5/31/5 
f 13/49/13 21/50/21 14/51/14 
f 14/35/14 21/52/21 22/53/22 15/36/15 
f 15/54/15 22/55/22 16/56/16 
f 16/39/16 22/57/22 23/58/23 17/40/17 
f 17/59/17 23/60/23 18/61/18 
f 18/43/18 23/62/23 24/63/24 19/44/19 
f 19/64/19 24/65/24 20/66/20 
f 20/47/20 24/67/24 21/68/21 13/48/13 
# 17 polygons - 8 triangles

