# 3ds Max Wavefront OBJ Exporter v0.97b - (c)2007 guruware
# File Created: 12.09.2019 17:00:09

mtllib container3.mtl

#
# object Box037
#

v  -5.4843 0.0000 1.8281
v  5.4843 0.0000 1.8281
v  -5.4843 0.0000 -1.8281
v  5.4843 0.0000 -1.8281
v  -5.4843 3.6562 1.8281
v  5.4843 3.6562 1.8281
v  -5.4843 3.6562 -1.8281
v  5.4843 3.6562 -1.8281
v  -5.2462 3.6562 1.5900
v  5.2462 3.6562 1.5900
v  5.2462 3.6562 -1.5900
v  -5.2462 3.6562 -1.5900
v  -5.2462 0.2381 1.8281
v  5.2462 0.2381 1.8281
v  5.2462 3.4181 1.8281
v  -5.2462 3.4181 1.8281
v  5.4843 0.2381 1.5900
v  5.4843 0.2381 -1.5900
v  5.4843 3.4181 -1.5900
v  5.4843 3.4181 1.5900
v  5.2462 0.2381 -1.8281
v  -5.2462 0.2381 -1.8281
v  -5.2462 3.4181 -1.8281
v  5.2462 3.4181 -1.8281
v  -5.4843 0.2381 -1.5900
v  -5.4843 0.2381 1.5900
v  -5.4843 3.4181 1.5900
v  -5.4843 3.4181 -1.5900
v  -5.2462 3.5288 1.5900
v  5.2462 3.5288 1.5900
v  5.2462 3.5288 -1.5900
v  -5.2462 3.5288 -1.5900
v  -5.2462 0.2381 1.7008
v  5.2462 0.2381 1.7008
v  5.2462 3.4181 1.7008
v  -5.2462 3.4181 1.7008
v  5.3569 0.2381 1.5900
v  5.3569 0.2381 -1.5900
v  5.3569 3.4181 -1.5900
v  5.3569 3.4181 1.5900
v  5.2462 0.2381 -1.7008
v  -5.2462 0.2381 -1.7008
v  -5.2462 3.4181 -1.7008
v  5.2462 3.4181 -1.7008
v  -5.3569 0.2381 -1.5900
v  -5.3569 0.2381 1.5900
v  -5.3569 3.4181 1.5900
v  -5.3569 3.4181 -1.5900
# 48 vertices

vn 0.0000 -1.0000 -0.0000
vn 0.0000 -1.0000 -0.0000
vn 0.0000 -1.0000 -0.0000
vn 0.0000 -1.0000 -0.0000
vn 0.0000 -1.0000 -0.0000
vn 0.0000 -1.0000 -0.0000
vn 0.0000 1.0000 -0.0000
vn 0.0000 1.0000 -0.0000
vn 0.0000 1.0000 -0.0000
vn 0.0000 1.0000 -0.0000
vn 0.0000 1.0000 -0.0000
vn 0.0000 1.0000 -0.0000
vn 0.0000 0.0000 1.0000
vn 0.0000 0.0000 1.0000
vn 0.0000 0.0000 1.0000
vn 0.0000 0.0000 1.0000
vn 0.0000 0.0000 1.0000
vn 0.0000 0.0000 1.0000
vn 1.0000 0.0000 -0.0000
vn 1.0000 0.0000 -0.0000
vn 1.0000 0.0000 -0.0000
vn 1.0000 0.0000 -0.0000
vn 1.0000 0.0000 -0.0000
vn 1.0000 0.0000 -0.0000
vn 0.0000 0.0000 -1.0000
vn 0.0000 0.0000 -1.0000
vn 0.0000 0.0000 -1.0000
vn 0.0000 0.0000 -1.0000
vn 0.0000 0.0000 -1.0000
vn 0.0000 0.0000 -1.0000
vn -1.0000 0.0000 -0.0000
vn -1.0000 0.0000 -0.0000
vn -1.0000 0.0000 -0.0000
vn -1.0000 0.0000 -0.0000
vn -1.0000 0.0000 -0.0000
vn -1.0000 0.0000 -0.0000
vn 0.0000 1.0000 -0.0000
vn 0.0000 1.0000 -0.0000
vn 0.0000 1.0000 -0.0000
vn 0.0000 1.0000 -0.0000
vn 0.0000 1.0000 -0.0000
vn 0.0000 1.0000 -0.0000
vn 0.0000 1.0000 -0.0000
vn 0.0000 1.0000 -0.0000
vn 0.0000 1.0000 -0.0000
vn 0.0000 1.0000 -0.0000
vn 0.0000 1.0000 -0.0000
vn 0.0000 1.0000 -0.0000
vn 0.0000 1.0000 -0.0000
vn 0.0000 1.0000 -0.0000
vn 0.0000 1.0000 -0.0000
vn 0.0000 1.0000 -0.0000
vn 0.0000 1.0000 -0.0000
vn 0.0000 1.0000 -0.0000
vn 0.0000 1.0000 -0.0000
vn 0.0000 1.0000 -0.0000
vn 0.0000 1.0000 -0.0000
vn 0.0000 1.0000 -0.0000
vn 0.0000 1.0000 -0.0000
vn 0.0000 1.0000 -0.0000
vn 0.0000 0.0000 1.0000
vn 0.0000 0.0000 1.0000
vn 0.0000 0.0000 1.0000
vn 0.0000 0.0000 1.0000
vn 0.0000 0.0000 1.0000
vn 0.0000 0.0000 1.0000
vn 0.0000 0.0000 1.0000
vn 0.0000 0.0000 1.0000
vn 0.0000 0.0000 1.0000
vn 0.0000 0.0000 1.0000
vn 0.0000 0.0000 1.0000
vn 0.0000 0.0000 1.0000
vn 0.0000 0.0000 1.0000
vn 0.0000 0.0000 1.0000
vn 0.0000 0.0000 1.0000
vn 0.0000 0.0000 1.0000
vn 0.0000 0.0000 1.0000
vn 0.0000 0.0000 1.0000
vn 0.0000 0.0000 1.0000
vn 0.0000 0.0000 1.0000
vn 0.0000 0.0000 1.0000
vn 0.0000 0.0000 1.0000
vn 0.0000 0.0000 1.0000
vn 0.0000 0.0000 1.0000
vn 1.0000 0.0000 -0.0000
vn 1.0000 0.0000 -0.0000
vn 1.0000 0.0000 -0.0000
vn 1.0000 0.0000 -0.0000
vn 1.0000 0.0000 -0.0000
vn 1.0000 0.0000 -0.0000
vn 1.0000 0.0000 -0.0000
vn 1.0000 0.0000 -0.0000
vn 1.0000 0.0000 -0.0000
vn 1.0000 0.0000 -0.0000
vn 1.0000 0.0000 -0.0000
vn 1.0000 0.0000 -0.0000
vn 1.0000 0.0000 -0.0000
vn 1.0000 0.0000 -0.0000
vn 1.0000 0.0000 -0.0000
vn 1.0000 0.0000 -0.0000
vn 1.0000 0.0000 -0.0000
vn 1.0000 0.0000 -0.0000
vn 1.0000 0.0000 -0.0000
vn 1.0000 0.0000 -0.0000
vn 1.0000 0.0000 -0.0000
vn 1.0000 0.0000 -0.0000
vn 1.0000 0.0000 -0.0000
vn 1.0000 0.0000 -0.0000
vn 0.0000 0.0000 -1.0000
vn 0.0000 0.0000 -1.0000
vn 0.0000 0.0000 -1.0000
vn 0.0000 0.0000 -1.0000
vn 0.0000 0.0000 -1.0000
vn 0.0000 0.0000 -1.0000
vn 0.0000 0.0000 -1.0000
vn 0.0000 0.0000 -1.0000
vn 0.0000 0.0000 -1.0000
vn 0.0000 0.0000 -1.0000
vn 0.0000 0.0000 -1.0000
vn 0.0000 0.0000 -1.0000
vn 0.0000 0.0000 -1.0000
vn 0.0000 0.0000 -1.0000
vn 0.0000 0.0000 -1.0000
vn 0.0000 0.0000 -1.0000
vn 0.0000 0.0000 -1.0000
vn 0.0000 0.0000 -1.0000
vn 0.0000 0.0000 -1.0000
vn 0.0000 0.0000 -1.0000
vn 0.0000 0.0000 -1.0000
vn 0.0000 0.0000 -1.0000
vn 0.0000 0.0000 -1.0000
vn 0.0000 0.0000 -1.0000
vn -1.0000 0.0000 -0.0000
vn -1.0000 0.0000 -0.0000
vn -1.0000 0.0000 -0.0000
vn -1.0000 0.0000 -0.0000
vn -1.0000 0.0000 -0.0000
vn -1.0000 0.0000 -0.0000
vn -1.0000 0.0000 -0.0000
vn -1.0000 0.0000 -0.0000
vn -1.0000 0.0000 -0.0000
vn -1.0000 0.0000 -0.0000
vn -1.0000 0.0000 -0.0000
vn -1.0000 0.0000 -0.0000
vn -1.0000 0.0000 -0.0000
vn -1.0000 0.0000 -0.0000
vn -1.0000 0.0000 -0.0000
vn -1.0000 0.0000 -0.0000
vn -1.0000 0.0000 -0.0000
vn -1.0000 0.0000 -0.0000
vn -1.0000 0.0000 -0.0000
vn -1.0000 0.0000 -0.0000
vn -1.0000 0.0000 -0.0000
vn -1.0000 0.0000 -0.0000
vn -1.0000 0.0000 -0.0000
vn -1.0000 0.0000 -0.0000
vn 0.0000 0.0000 -1.0000
vn 0.0000 0.0000 -1.0000
vn 0.0000 0.0000 -1.0000
vn 0.0000 0.0000 -1.0000
vn 0.0000 0.0000 -1.0000
vn 0.0000 0.0000 -1.0000
vn -1.0000 0.0000 -0.0000
vn -1.0000 0.0000 -0.0000
vn -1.0000 0.0000 -0.0000
vn -1.0000 0.0000 -0.0000
vn -1.0000 0.0000 -0.0000
vn -1.0000 0.0000 -0.0000
vn 0.0000 0.0000 1.0000
vn 0.0000 0.0000 1.0000
vn 0.0000 0.0000 1.0000
vn 0.0000 0.0000 1.0000
vn 0.0000 0.0000 1.0000
vn 0.0000 0.0000 1.0000
vn 1.0000 0.0000 -0.0000
vn 1.0000 0.0000 -0.0000
vn 1.0000 0.0000 -0.0000
vn 1.0000 0.0000 -0.0000
vn 1.0000 0.0000 -0.0000
vn 1.0000 0.0000 -0.0000
vn 0.0000 1.0000 -0.0000
vn 0.0000 1.0000 -0.0000
vn 0.0000 1.0000 -0.0000
vn 0.0000 1.0000 -0.0000
vn 0.0000 1.0000 -0.0000
vn 0.0000 1.0000 -0.0000
vn -1.0000 0.0000 -0.0000
vn -1.0000 0.0000 -0.0000
vn -1.0000 0.0000 -0.0000
vn -1.0000 0.0000 -0.0000
vn -1.0000 0.0000 -0.0000
vn -1.0000 0.0000 -0.0000
vn 0.0000 -1.0000 -0.0000
vn 0.0000 -1.0000 -0.0000
vn 0.0000 -1.0000 -0.0000
vn 0.0000 -1.0000 -0.0000
vn 0.0000 -1.0000 -0.0000
vn 0.0000 -1.0000 -0.0000
vn 1.0000 0.0000 -0.0000
vn 1.0000 0.0000 -0.0000
vn 1.0000 0.0000 -0.0000
vn 1.0000 0.0000 -0.0000
vn 1.0000 0.0000 -0.0000
vn 1.0000 0.0000 -0.0000
vn 0.0000 1.0000 -0.0000
vn 0.0000 1.0000 -0.0000
vn 0.0000 1.0000 -0.0000
vn 0.0000 1.0000 -0.0000
vn 0.0000 1.0000 -0.0000
vn 0.0000 1.0000 -0.0000
vn 0.0000 0.0000 1.0000
vn 0.0000 0.0000 1.0000
vn 0.0000 0.0000 1.0000
vn 0.0000 0.0000 1.0000
vn 0.0000 0.0000 1.0000
vn 0.0000 0.0000 1.0000
vn 0.0000 -1.0000 -0.0000
vn 0.0000 -1.0000 -0.0000
vn 0.0000 -1.0000 -0.0000
vn 0.0000 -1.0000 -0.0000
vn 0.0000 -1.0000 -0.0000
vn 0.0000 -1.0000 -0.0000
vn 0.0000 0.0000 -1.0000
vn 0.0000 0.0000 -1.0000
vn 0.0000 0.0000 -1.0000
vn 0.0000 0.0000 -1.0000
vn 0.0000 0.0000 -1.0000
vn 0.0000 0.0000 -1.0000
vn 0.0000 1.0000 -0.0000
vn 0.0000 1.0000 -0.0000
vn 0.0000 1.0000 -0.0000
vn 0.0000 1.0000 -0.0000
vn 0.0000 1.0000 -0.0000
vn 0.0000 1.0000 -0.0000
vn 1.0000 0.0000 -0.0000
vn 1.0000 0.0000 -0.0000
vn 1.0000 0.0000 -0.0000
vn 1.0000 0.0000 -0.0000
vn 1.0000 0.0000 -0.0000
vn 1.0000 0.0000 -0.0000
vn 0.0000 -1.0000 -0.0000
vn 0.0000 -1.0000 -0.0000
vn 0.0000 -1.0000 -0.0000
vn 0.0000 -1.0000 -0.0000
vn 0.0000 -1.0000 -0.0000
vn 0.0000 -1.0000 -0.0000
vn -1.0000 0.0000 -0.0000
vn -1.0000 0.0000 -0.0000
vn -1.0000 0.0000 -0.0000
vn -1.0000 0.0000 -0.0000
vn -1.0000 0.0000 -0.0000
vn -1.0000 0.0000 -0.0000
vn 0.0000 1.0000 -0.0000
vn 0.0000 1.0000 -0.0000
vn 0.0000 1.0000 -0.0000
vn 0.0000 1.0000 -0.0000
vn 0.0000 1.0000 -0.0000
vn 0.0000 1.0000 -0.0000
vn 0.0000 0.0000 -1.0000
vn 0.0000 0.0000 -1.0000
vn 0.0000 0.0000 -1.0000
vn 0.0000 0.0000 -1.0000
vn 0.0000 0.0000 -1.0000
vn 0.0000 0.0000 -1.0000
vn 0.0000 -1.0000 -0.0000
vn 0.0000 -1.0000 -0.0000
vn 0.0000 -1.0000 -0.0000
vn 0.0000 -1.0000 -0.0000
vn 0.0000 -1.0000 -0.0000
vn 0.0000 -1.0000 -0.0000
vn 0.0000 0.0000 1.0000
vn 0.0000 0.0000 1.0000
vn 0.0000 0.0000 1.0000
vn 0.0000 0.0000 1.0000
vn 0.0000 0.0000 1.0000
vn 0.0000 0.0000 1.0000
# 276 vertex normals

vt 0.0005 0.2003 0.0000
vt 0.0005 0.0005 0.0000
vt 0.5998 0.0005 0.0000
vt 0.5998 0.2003 0.0000
vt 0.0005 0.6047 0.0000
vt 0.5998 0.6047 0.0000
vt 0.5868 0.6177 0.0000
vt 0.0135 0.6177 0.0000
vt 0.0005 0.2019 0.0000
vt 0.5998 0.2019 0.0000
vt 0.5868 0.2149 0.0000
vt 0.0135 0.2149 0.0000
vt 0.6145 0.5752 0.0000
vt 0.8143 0.5752 0.0000
vt 0.8013 0.5882 0.0000
vt 0.6275 0.5882 0.0000
vt 0.0005 0.4033 0.0000
vt 0.5998 0.4033 0.0000
vt 0.5868 0.4163 0.0000
vt 0.0135 0.4163 0.0000
vt 0.6145 0.7766 0.0000
vt 0.8143 0.7766 0.0000
vt 0.8013 0.7896 0.0000
vt 0.6275 0.7896 0.0000
vt 0.7914 0.5738 0.0000
vt 0.7914 0.0005 0.0000
vt 0.7815 0.5738 0.0000
vt 0.7815 0.0005 0.0000
vt 0.0005 0.8061 0.0000
vt 0.5738 0.8061 0.0000
vt 0.9780 0.5738 0.0000
vt 0.9780 0.0005 0.0000
vt 0.2222 0.6351 0.0000
vt 0.0485 0.6351 0.0000
vt 0.6117 0.7864 0.0000
vt 0.0485 0.4268 0.0000
vt 0.5738 0.8229 0.0000
vt 0.0005 0.8229 0.0000
vt 0.9948 0.0005 0.0000
vt 0.9948 0.5738 0.0000
vt 0.0485 0.4417 0.0000
vt 0.2222 0.4417 0.0000
vt 0.2222 0.2472 0.0000
vt 0.0485 0.4342 0.0000
vt 0.7983 0.0005 0.0000
vt 0.7983 0.5738 0.0000
vt 0.7885 0.0005 0.0000
vt 0.7885 0.5738 0.0000
vt 0.5738 0.8131 0.0000
vt 0.0005 0.8131 0.0000
vt 0.9850 0.0005 0.0000
vt 0.9850 0.5738 0.0000
vt 0.0485 0.6282 0.0000
vt 0.2222 0.6282 0.0000
vt 0.6117 0.9602 0.0000
vt 0.2222 0.4268 0.0000
vt 0.0005 0.8159 0.0000
vt 0.5738 0.8159 0.0000
vt 0.9878 0.5738 0.0000
vt 0.9878 0.0005 0.0000
vt 0.2222 0.4486 0.0000
vt 0.0485 0.4486 0.0000
vt 0.0485 0.2472 0.0000
vt 0.2222 0.4342 0.0000
vt 0.8159 0.7717 0.0000
vt 0.9897 0.7717 0.0000
vt 0.9897 0.9455 0.0000
vt 0.8159 0.9455 0.0000
vt 0.8159 0.5850 0.0000
vt 0.9897 0.5850 0.0000
vt 0.9897 0.7588 0.0000
vt 0.8159 0.7588 0.0000
vt 0.9749 0.0005 0.0000
vt 0.9749 0.5738 0.0000
vt 0.8012 0.5738 0.0000
vt 0.8012 0.0005 0.0000
vt 0.7785 0.0005 0.0000
vt 0.7785 0.5738 0.0000
vt 0.6047 0.5738 0.0000
vt 0.6047 0.0005 0.0000
vt 0.0005 0.8257 0.0000
vt 0.5738 0.8257 0.0000
vt 0.5738 0.9995 0.0000
vt 0.0005 0.9995 0.0000
vt 0.8143 0.7750 0.0000
vt 0.8013 0.7620 0.0000
vt 0.6145 0.7750 0.0000
vt 0.6275 0.7620 0.0000
vt 0.8143 0.9764 0.0000
vt 0.8013 0.9634 0.0000
vt 0.6145 0.9764 0.0000
vt 0.6275 0.9634 0.0000
vt 0.5998 0.6031 0.0000
vt 0.5868 0.5901 0.0000
vt 0.0005 0.6031 0.0000
vt 0.0135 0.5901 0.0000
vt 0.5998 0.4017 0.0000
vt 0.5868 0.3887 0.0000
vt 0.0005 0.4017 0.0000
vt 0.0135 0.3887 0.0000
vt 0.5998 0.8045 0.0000
vt 0.5868 0.7915 0.0000
vt 0.0005 0.8045 0.0000
vt 0.0135 0.7915 0.0000
vt 0.2222 0.2249 0.0000
vt 0.0485 0.2249 0.0000
vt 0.0485 0.2179 0.0000
vt 0.2222 0.2179 0.0000
vt 0.2222 0.6277 0.0000
vt 0.0485 0.6277 0.0000
vt 0.0485 0.6207 0.0000
vt 0.2222 0.6207 0.0000
vt 0.6047 0.7588 0.0000
vt 0.6047 0.5850 0.0000
vt 0.6117 0.5850 0.0000
vt 0.6117 0.7588 0.0000
vt 0.2222 0.4337 0.0000
vt 0.0485 0.4337 0.0000
vt 0.6047 0.9602 0.0000
vt 0.6047 0.7864 0.0000
vt 0.0485 0.6356 0.0000
vt 0.2222 0.6356 0.0000
vt 0.2222 0.6426 0.0000
vt 0.0485 0.6426 0.0000
vt 0.0485 0.6431 0.0000
vt 0.2222 0.6431 0.0000
vt 0.2222 0.6500 0.0000
vt 0.0485 0.6500 0.0000
vt 0.2222 0.4263 0.0000
vt 0.0485 0.4263 0.0000
vt 0.0485 0.4193 0.0000
vt 0.2222 0.4193 0.0000
vt 0.0485 0.2403 0.0000
vt 0.2222 0.2403 0.0000
vt 0.2222 0.4412 0.0000
vt 0.0485 0.4412 0.0000
vt 0.2222 0.2323 0.0000
vt 0.0485 0.2323 0.0000
vt 0.0485 0.2254 0.0000
vt 0.2222 0.2254 0.0000
vt 0.0485 0.2328 0.0000
vt 0.2222 0.2328 0.0000
vt 0.2222 0.2398 0.0000
vt 0.0485 0.2398 0.0000
# 144 texture coords

o Box037
g Box037
usemtl Material__1331
s 2
f 1/1/1 3/2/2 4/3/3 
f 4/3/4 2/4/5 1/1/6 
s 4
f 29/81/7 30/82/8 31/83/9 
f 31/83/10 32/84/11 29/81/12 
s 8
f 33/77/13 34/78/14 35/79/15 
f 35/79/16 36/80/17 33/77/18 
s 16
f 37/65/19 38/66/20 39/67/21 
f 39/67/22 40/68/23 37/65/24 
s 32
f 41/73/25 42/74/26 43/75/27 
f 43/75/28 44/76/29 41/73/30 
s 64
f 45/69/31 46/70/32 47/71/33 
f 47/71/34 48/72/35 45/69/36 
s off
f 5/5/37 6/6/38 10/7/39 
f 10/7/40 9/8/41 5/5/42 
f 6/6/43 8/101/44 11/102/45 
f 11/102/46 10/7/47 6/6/48 
f 8/101/49 7/103/50 12/104/51 
f 12/104/52 11/102/53 8/101/54 
f 7/103/55 5/5/56 9/8/57 
f 9/8/58 12/104/59 7/103/60 
f 1/9/61 2/10/62 14/11/63 
f 14/11/64 13/12/65 1/9/66 
f 2/10/67 6/97/68 15/98/69 
f 15/98/70 14/11/71 2/10/72 
f 6/97/73 5/99/74 16/100/75 
f 16/100/76 15/98/77 6/97/78 
f 5/99/79 1/9/80 13/12/81 
f 13/12/82 16/100/83 5/99/84 
f 2/13/85 4/14/86 18/15/87 
f 18/15/88 17/16/89 2/13/90 
f 4/14/91 8/85/92 19/86/93 
f 19/86/94 18/15/95 4/14/96 
f 8/85/97 6/87/98 20/88/99 
f 20/88/100 19/86/101 8/85/102 
f 6/87/103 2/13/104 17/16/105 
f 17/16/106 20/88/107 6/87/108 
f 4/17/109 3/18/110 22/19/111 
f 22/19/112 21/20/113 4/17/114 
f 3/18/115 7/93/116 23/94/117 
f 23/94/118 22/19/119 3/18/120 
f 7/93/121 8/95/122 24/96/123 
f 24/96/124 23/94/125 7/93/126 
f 8/95/127 4/17/128 21/20/129 
f 21/20/130 24/96/131 8/95/132 
f 3/21/133 1/22/134 26/23/135 
f 26/23/136 25/24/137 3/21/138 
f 1/22/139 5/89/140 27/90/141 
f 27/90/142 26/23/143 1/22/144 
f 5/89/145 7/91/146 28/92/147 
f 28/92/148 27/90/149 5/89/150 
f 7/91/151 3/21/152 25/24/153 
f 25/24/154 28/92/155 7/91/156 
f 9/25/157 10/26/158 30/45/159 
f 30/45/160 29/46/161 9/25/162 
f 10/113/163 11/114/164 31/115/165 
f 31/115/166 30/116/167 10/113/168 
f 11/27/169 12/28/170 32/47/171 
f 32/47/172 31/48/173 11/27/174 
f 12/109/175 9/110/176 29/111/177 
f 29/111/178 32/112/179 12/109/180 
f 13/29/181 14/30/182 34/49/183 
f 34/49/184 33/50/185 13/29/186 
f 14/129/187 15/130/188 35/131/189 
f 35/131/190 34/132/191 14/129/192 
f 15/31/193 16/32/194 36/51/195 
f 36/51/196 35/52/197 15/31/198 
f 16/125/199 13/126/200 33/127/201 
f 33/127/202 36/128/203 16/125/204 
f 17/33/205 18/34/206 38/53/207 
f 38/53/208 37/54/209 17/33/210 
f 18/35/211 19/55/212 39/119/213 
f 39/119/214 38/120/215 18/35/216 
f 19/105/217 20/106/218 40/107/219 
f 40/107/220 39/108/221 19/105/222 
f 20/36/223 17/56/224 37/117/225 
f 37/117/226 40/118/227 20/36/228 
f 21/37/229 22/38/230 42/57/231 
f 42/57/232 41/58/233 21/37/234 
f 22/137/235 23/138/236 43/139/237 
f 43/139/238 42/140/239 22/137/240 
f 23/39/241 24/40/242 44/59/243 
f 44/59/244 43/60/245 23/39/246 
f 24/141/247 21/142/248 41/143/249 
f 41/143/250 44/144/251 24/141/252 
f 25/41/253 26/42/254 46/61/255 
f 46/61/256 45/62/257 25/41/258 
f 26/43/259 27/63/260 47/133/261 
f 47/133/262 46/134/263 26/43/264 
f 27/121/265 28/122/266 48/123/267 
f 48/123/268 47/124/269 27/121/270 
f 28/44/271 25/64/272 45/135/273 
f 45/135/274 48/136/275 28/44/276 
# 92 faces

